<?xml version="1.0" encoding="UTF-8" standalone="no"?>
<!-- Uploaded to: SVG Repo, www.svgrepo.com, Generator: SVG Repo Mixer Tools -->

<svg
   fill="#000000"
   height="800px"
   width="800px"
   version="1.1"
   id="Capa_1"
   viewBox="0 0 455.896 455.896"
   xml:space="preserve"
   sodipodi:docname="tic-tac-toe-game.svg"
   inkscape:version="1.3.2 (091e20e, 2023-11-25, custom)"
   xmlns:inkscape="http://www.inkscape.org/namespaces/inkscape"
   xmlns:sodipodi="http://sodipodi.sourceforge.net/DTD/sodipodi-0.dtd"
   xmlns="http://www.w3.org/2000/svg"
   xmlns:svg="http://www.w3.org/2000/svg"><defs
   id="defs5" /><sodipodi:namedview
   id="namedview5"
   pagecolor="#ffffff"
   bordercolor="#000000"
   borderopacity="0.25"
   inkscape:showpageshadow="2"
   inkscape:pageopacity="0.0"
   inkscape:pagecheckerboard="0"
   inkscape:deskcolor="#d1d1d1"
   inkscape:zoom="0.63625"
   inkscape:cx="400"
   inkscape:cy="400"
   inkscape:window-width="1366"
   inkscape:window-height="705"
   inkscape:window-x="-8"
   inkscape:window-y="-8"
   inkscape:window-maximized="1"
   inkscape:current-layer="Capa_1" />
<g
   id="g5"
   inkscape:transform-center-x="-2.6870098"
   inkscape:transform-center-y="-3.5826798">
	<path
   d="m 432.458,330.806 c 8.794,0 15.926,-7.132 15.926,-15.926 0,-8.794 -7.132,-15.926 -15.926,-15.926 H 331.599 V 155.62 h 100.859 c 8.794,0 15.926,-7.132 15.926,-15.926 0,-8.794 -7.132,-15.926 -15.926,-15.926 H 331.599 V 22.909 c 0,-8.796 -7.132,-15.926 -15.926,-15.926 -8.796,0 -15.926,7.13 -15.926,15.926 V 123.768 H 156.414 V 22.902 c 0,-8.794 -7.132,-15.926 -15.926,-15.926 -8.796,0 -15.926,7.132 -15.926,15.926 V 123.769 H 23.695 c -8.794,0 -15.926,7.132 -15.926,15.926 0,8.794 7.132,15.926 15.926,15.926 H 124.562 V 298.954 H 23.695 c -8.794,0 -15.926,7.132 -15.926,15.926 0,8.794 7.132,15.926 15.926,15.926 h 100.867 v 100.859 c 0,8.796 7.13,15.926 15.926,15.926 8.794,0 15.926,-7.13 15.926,-15.926 V 330.806 h 143.333 v 100.867 c 0,8.794 7.13,15.926 15.926,15.926 8.794,0 15.926,-7.132 15.926,-15.926 V 330.806 Z M 156.414,298.954 V 155.62 H 299.747 V 298.953 H 156.414 Z"
   id="path1" />
	
	
	
	
</g>
</svg>
